<svg version="1.0" xmlns="http://www.w3.org/2000/svg" width="300px" height="300px" viewBox="0 0 300 300" preserveAspectRatio="xMidYMid meet" transform="rotate(0) scale(1, 1)">
 <g fill="#ffffff">
  <path d="M 0 298 c 0 -1.1 16.2 -34.4 36 -74 l 36 -72 -36 0 c -35.3 0 -36 0 -36 -2 0 -2 0.7 -2 37 -2 l 37 0 37 -74 37 -74 41.9 0 c 45.9 0 51.3 0.5 63.9 5.8 20 8.4 34.9 24.6 42.3 46.2 3.2 9 3.3 10.2 3.3 24 0 13.8 -0.1 15 -3.3 24 -9.5 27.7 -32 47 -59.7 51.1 l -8.4 1.2 0 36.1 0 36.1 36 36 c 20 20 36 36.8 36 37.7 0 1 -0.7 1.8 -1.7 1.8 -1 0 -17.2 -15.4 -36 -34.2 l -34.3 -34.3 0 34.3 c 0 33.5 0 34.2 -2 34.2 -2 0 -2 -0.7 -2 -36.3 l 0 -36.2 -36 -36 -36 -36 0 72.3 c 0 71.5 0 72.2 -2 72.2 -2 0 -2 -0.7 -2 -74 l 0 -74 -35.3 0 -35.2 0 -37 74 c -27.9 55.8 -37.4 74 -38.7 74 -1.1 0 -1.8 -0.8 -1.8 -2 z  m 224 -112 l 0 -34 -34.2 0 -34.3 0 34 34 c 18.7 18.7 34.1 34 34.2 34 0.2 0 0.3 -15.3 0.3 -34 z  m -76.1 -106.2 l 0 -68.3 -33.9 67.5 c -18.6 37.1 -33.9 67.8 -33.9 68.3 -0.1 0.4 15.2 0.7 33.9 0.7 l 34 0 -0.1 -68.2 z  m 76.1 32.7 l 0 -35.5 -36 0 -36 0 0 35.5 0 35.5 36 0 36 0 0 -35.5 z  m 22 32.3 c 27.3 -8.4 46.6 -32.4 49.6 -61.7 l 0.7 -6.1 -34.2 0 -34.1 0 0 35.6 0 35.6 5.7 -0.7 c 3.2 -0.4 8.7 -1.6 12.3 -2.7 z  m 49.6 -77 c -2.6 -20.2 -12.9 -38.4 -27.9 -49.5 -7.6 -5.5 -13.1 -8.4 -22.2 -11.4 -6.8 -2.3 -8.1 -2.3 -50.2 -2.7 l -43.3 -0.3 0 34.5 0 34.6 72.1 0 72.2 0 -0.7 -5.2 z "/>
 </g>
</svg>